<mxfile host="65bd71144e" pages="2">
    <diagram id="isS5LTfEV-B5i4dPdamE" name="map5">
        <mxGraphModel dx="2357" dy="1766" grid="1" gridSize="10" guides="1" tooltips="1" connect="1" arrows="1" fold="1" page="1" pageScale="1" pageWidth="1654" pageHeight="1169" math="0" shadow="0">
            <root>
                <mxCell id="0"/>
                <mxCell id="1" parent="0"/>
                <mxCell id="21" style="edgeStyle=orthogonalEdgeStyle;html=1;entryX=1;entryY=0.5;entryDx=0;entryDy=0;dashed=1;exitX=0.5;exitY=0;exitDx=0;exitDy=0;exitPerimeter=0;" parent="1" source="26" target="30" edge="1">
                    <mxGeometry relative="1" as="geometry">
                        <mxPoint x="550" y="-877.5" as="sourcePoint"/>
                        <Array as="points">
                            <mxPoint x="500" y="-810"/>
                        </Array>
                    </mxGeometry>
                </mxCell>
                <mxCell id="22" style="edgeStyle=orthogonalEdgeStyle;html=1;entryX=1;entryY=0.5;entryDx=0;entryDy=0;dashed=1;exitX=0.5;exitY=1;exitDx=0;exitDy=0;exitPerimeter=0;" parent="1" source="25" target="30" edge="1">
                    <mxGeometry relative="1" as="geometry">
                        <mxPoint x="620" y="-1161.5" as="sourcePoint"/>
                        <Array as="points">
                            <mxPoint x="500" y="-810"/>
                        </Array>
                    </mxGeometry>
                </mxCell>
                <mxCell id="23" style="edgeStyle=orthogonalEdgeStyle;rounded=0;orthogonalLoop=1;jettySize=auto;html=1;exitX=1;exitY=0.5;exitDx=0;exitDy=0;entryX=0;entryY=0.5;entryDx=0;entryDy=0;" parent="1" source="24" edge="1">
                    <mxGeometry relative="1" as="geometry">
                        <mxPoint x="220" y="-915" as="targetPoint"/>
                    </mxGeometry>
                </mxCell>
                <mxCell id="47" style="edgeStyle=none;html=1;" parent="1" source="24" target="46" edge="1">
                    <mxGeometry relative="1" as="geometry"/>
                </mxCell>
                <mxCell id="55" style="edgeStyle=orthogonalEdgeStyle;rounded=0;html=1;exitX=0;exitY=0.75;exitDx=0;exitDy=0;entryX=0.5;entryY=0;entryDx=0;entryDy=0;dashed=1;" parent="1" source="24" target="49" edge="1">
                    <mxGeometry relative="1" as="geometry"/>
                </mxCell>
                <mxCell id="24" value="pymongo-api&lt;br&gt;&lt;i&gt;python3&lt;/i&gt;" style="rounded=1;whiteSpace=wrap;html=1;" parent="1" vertex="1">
                    <mxGeometry x="40" y="-945" width="120" height="60" as="geometry"/>
                </mxCell>
                <mxCell id="25" value="shard1-a&lt;br&gt;&lt;i&gt;mongodb&lt;/i&gt;&lt;br&gt;(master)" style="shape=cylinder3;whiteSpace=wrap;html=1;boundedLbl=1;backgroundOutline=1;size=15;" parent="1" vertex="1">
                    <mxGeometry x="470" y="-995" width="60" height="100" as="geometry"/>
                </mxCell>
                <mxCell id="26" value="shard2-a&lt;br&gt;&lt;i style=&quot;border-color: var(--border-color);&quot;&gt;mongodb&lt;br&gt;&lt;span style=&quot;font-style: normal;&quot;&gt;(master)&lt;/span&gt;&lt;br&gt;&lt;/i&gt;" style="shape=cylinder3;whiteSpace=wrap;html=1;boundedLbl=1;backgroundOutline=1;size=15;" parent="1" vertex="1">
                    <mxGeometry x="470" y="-732.5" width="60" height="107.5" as="geometry"/>
                </mxCell>
                <mxCell id="29" style="edgeStyle=orthogonalEdgeStyle;rounded=0;orthogonalLoop=1;jettySize=auto;html=1;" parent="1" source="30" target="31" edge="1">
                    <mxGeometry relative="1" as="geometry">
                        <mxPoint x="280" y="-945" as="targetPoint"/>
                        <Array as="points">
                            <mxPoint x="280" y="-860"/>
                            <mxPoint x="280" y="-860"/>
                        </Array>
                    </mxGeometry>
                </mxCell>
                <mxCell id="60" style="edgeStyle=orthogonalEdgeStyle;rounded=0;html=1;exitX=0.5;exitY=1;exitDx=0;exitDy=0;entryX=0.5;entryY=0;entryDx=0;entryDy=0;" parent="1" source="30" target="57" edge="1">
                    <mxGeometry relative="1" as="geometry"/>
                </mxCell>
                <mxCell id="30" value="configSrv&lt;br&gt;&lt;i style=&quot;border-color: var(--border-color);&quot;&gt;mongodb&lt;/i&gt;" style="rounded=1;whiteSpace=wrap;html=1;" parent="1" vertex="1">
                    <mxGeometry x="220" y="-840" width="120" height="60" as="geometry"/>
                </mxCell>
                <mxCell id="65" style="edgeStyle=orthogonalEdgeStyle;rounded=1;html=1;exitX=0.5;exitY=0;exitDx=0;exitDy=0;entryX=0.5;entryY=0;entryDx=0;entryDy=0;entryPerimeter=0;" parent="1" source="31" target="25" edge="1">
                    <mxGeometry relative="1" as="geometry">
                        <Array as="points">
                            <mxPoint x="280" y="-1020"/>
                            <mxPoint x="500" y="-1020"/>
                        </Array>
                    </mxGeometry>
                </mxCell>
                <mxCell id="66" style="edgeStyle=orthogonalEdgeStyle;rounded=1;html=1;exitX=0.5;exitY=0;exitDx=0;exitDy=0;entryX=0.5;entryY=0;entryDx=0;entryDy=0;entryPerimeter=0;" parent="1" source="31" target="32" edge="1">
                    <mxGeometry relative="1" as="geometry">
                        <Array as="points">
                            <mxPoint x="280" y="-1020"/>
                            <mxPoint x="590" y="-1020"/>
                        </Array>
                    </mxGeometry>
                </mxCell>
                <mxCell id="67" style="edgeStyle=orthogonalEdgeStyle;rounded=1;html=1;exitX=0.5;exitY=0;exitDx=0;exitDy=0;entryX=0.5;entryY=0;entryDx=0;entryDy=0;entryPerimeter=0;" parent="1" source="31" target="33" edge="1">
                    <mxGeometry relative="1" as="geometry">
                        <Array as="points">
                            <mxPoint x="280" y="-1020"/>
                            <mxPoint x="680" y="-1020"/>
                        </Array>
                    </mxGeometry>
                </mxCell>
                <mxCell id="31" value="&lt;div style=&quot;background-color: rgb(255, 255, 255); line-height: 20px;&quot;&gt;&lt;font style=&quot;font-size: 12px;&quot;&gt;mongos1&lt;/font&gt;&lt;/div&gt;&lt;i style=&quot;border-color: var(--border-color);&quot;&gt;&lt;font style=&quot;font-size: 12px;&quot;&gt;mongodb&lt;/font&gt;&lt;/i&gt;" style="rounded=1;whiteSpace=wrap;html=1;" parent="1" vertex="1">
                    <mxGeometry x="220" y="-945" width="120" height="60" as="geometry"/>
                </mxCell>
                <mxCell id="61" style="edgeStyle=orthogonalEdgeStyle;rounded=1;html=1;exitX=0.5;exitY=1;exitDx=0;exitDy=0;exitPerimeter=0;entryX=1;entryY=0.5;entryDx=0;entryDy=0;dashed=1;" parent="1" source="32" target="30" edge="1">
                    <mxGeometry relative="1" as="geometry"/>
                </mxCell>
                <mxCell id="32" value="shard1-b&lt;br&gt;&lt;i&gt;mongodb&lt;/i&gt;&lt;br&gt;(replica)" style="shape=cylinder3;whiteSpace=wrap;html=1;boundedLbl=1;backgroundOutline=1;size=15;" parent="1" vertex="1">
                    <mxGeometry x="560" y="-995" width="60" height="100" as="geometry"/>
                </mxCell>
                <mxCell id="62" style="edgeStyle=orthogonalEdgeStyle;rounded=1;html=1;exitX=0.5;exitY=1;exitDx=0;exitDy=0;exitPerimeter=0;entryX=1;entryY=0.5;entryDx=0;entryDy=0;dashed=1;" parent="1" source="33" target="30" edge="1">
                    <mxGeometry relative="1" as="geometry"/>
                </mxCell>
                <mxCell id="33" value="shard1-c&lt;br&gt;&lt;i&gt;mongodb&lt;br&gt;&lt;/i&gt;(replica)&lt;i&gt;&lt;br&gt;&lt;/i&gt;" style="shape=cylinder3;whiteSpace=wrap;html=1;boundedLbl=1;backgroundOutline=1;size=15;" parent="1" vertex="1">
                    <mxGeometry x="650" y="-995" width="60" height="100" as="geometry"/>
                </mxCell>
                <mxCell id="63" style="edgeStyle=orthogonalEdgeStyle;rounded=1;html=1;exitX=0.5;exitY=0;exitDx=0;exitDy=0;exitPerimeter=0;entryX=1;entryY=0.5;entryDx=0;entryDy=0;dashed=1;" parent="1" source="36" target="30" edge="1">
                    <mxGeometry relative="1" as="geometry"/>
                </mxCell>
                <mxCell id="36" value="shard2-b&lt;br&gt;&lt;i style=&quot;border-color: var(--border-color);&quot;&gt;mongodb&lt;br&gt;&lt;span style=&quot;font-style: normal;&quot;&gt;(replica)&lt;/span&gt;&lt;br&gt;&lt;/i&gt;" style="shape=cylinder3;whiteSpace=wrap;html=1;boundedLbl=1;backgroundOutline=1;size=15;" parent="1" vertex="1">
                    <mxGeometry x="560" y="-732.5" width="60" height="107.5" as="geometry"/>
                </mxCell>
                <mxCell id="37" value="shard2-c&lt;br&gt;&lt;i style=&quot;border-color: var(--border-color);&quot;&gt;mongodb&lt;br&gt;&lt;span style=&quot;font-style: normal;&quot;&gt;(replica)&lt;/span&gt;&lt;br&gt;&lt;/i&gt;" style="shape=cylinder3;whiteSpace=wrap;html=1;boundedLbl=1;backgroundOutline=1;size=15;" parent="1" vertex="1">
                    <mxGeometry x="650" y="-732.5" width="60" height="107.5" as="geometry"/>
                </mxCell>
                <mxCell id="45" value="Схема 5: CDN" style="text;html=1;strokeColor=none;fillColor=none;align=center;verticalAlign=middle;whiteSpace=wrap;rounded=0;fontFamily=Helvetica;fontSize=18;" parent="1" vertex="1">
                    <mxGeometry x="-760" y="-1095" width="320" height="60" as="geometry"/>
                </mxCell>
                <mxCell id="46" value="redis" style="rounded=1;whiteSpace=wrap;html=1;" parent="1" vertex="1">
                    <mxGeometry x="40" y="-837.5" width="120" height="60" as="geometry"/>
                </mxCell>
                <mxCell id="52" style="edgeStyle=orthogonalEdgeStyle;html=1;exitX=0.5;exitY=1;exitDx=0;exitDy=0;rounded=0;entryX=0;entryY=0.5;entryDx=0;entryDy=0;" parent="1" source="48" target="50" edge="1">
                    <mxGeometry relative="1" as="geometry"/>
                </mxCell>
                <mxCell id="53" style="edgeStyle=orthogonalEdgeStyle;rounded=0;html=1;exitX=0.5;exitY=0;exitDx=0;exitDy=0;entryX=0;entryY=0.5;entryDx=0;entryDy=0;" parent="1" source="48" target="24" edge="1">
                    <mxGeometry relative="1" as="geometry"/>
                </mxCell>
                <mxCell id="48" value="Api Gateway" style="rounded=1;whiteSpace=wrap;html=1;" parent="1" vertex="1">
                    <mxGeometry x="-260" y="-837.5" width="120" height="60" as="geometry"/>
                </mxCell>
                <mxCell id="56" style="edgeStyle=orthogonalEdgeStyle;rounded=0;html=1;exitX=0;exitY=0.5;exitDx=0;exitDy=0;entryX=1;entryY=0.5;entryDx=0;entryDy=0;" parent="1" source="49" target="48" edge="1">
                    <mxGeometry relative="1" as="geometry"/>
                </mxCell>
                <mxCell id="49" value="&lt;span style=&quot;color: rgba(0, 0, 0, 0.85); font-family: &amp;quot;YS Text&amp;quot;, sans-serif; white-space-collapse: preserve; background-color: rgb(255, 255, 255);&quot;&gt;Service Discovery&lt;/span&gt;&lt;div&gt;&lt;font color=&quot;rgba(0, 0, 0, 0.85)&quot; face=&quot;YS Text, sans-serif&quot;&gt;&lt;span style=&quot;white-space-collapse: preserve; background-color: rgb(255, 255, 255);&quot;&gt;(&lt;/span&gt;&lt;/font&gt;&lt;span style=&quot;background-color: rgb(255, 255, 255); color: rgba(0, 0, 0, 0.85); font-family: &amp;quot;YS Text&amp;quot;, sans-serif; white-space-collapse: preserve;&quot;&gt;Consul&lt;/span&gt;&lt;span style=&quot;background-color: rgb(255, 255, 255); white-space-collapse: preserve; color: rgba(0, 0, 0, 0.85); font-family: &amp;quot;YS Text&amp;quot;, sans-serif;&quot;&gt;)&lt;/span&gt;&lt;/div&gt;" style="rounded=1;whiteSpace=wrap;html=1;align=center;fontSize=12;" parent="1" vertex="1">
                    <mxGeometry x="-110" y="-837.5" width="120" height="60" as="geometry"/>
                </mxCell>
                <mxCell id="51" style="edgeStyle=none;html=1;exitX=0.5;exitY=0;exitDx=0;exitDy=0;entryX=0.5;entryY=1;entryDx=0;entryDy=0;" parent="1" source="50" target="46" edge="1">
                    <mxGeometry relative="1" as="geometry"/>
                </mxCell>
                <mxCell id="54" style="edgeStyle=orthogonalEdgeStyle;rounded=0;html=1;exitX=0;exitY=0.25;exitDx=0;exitDy=0;entryX=0.5;entryY=1;entryDx=0;entryDy=0;dashed=1;" parent="1" source="50" target="49" edge="1">
                    <mxGeometry relative="1" as="geometry"/>
                </mxCell>
                <mxCell id="58" style="edgeStyle=orthogonalEdgeStyle;rounded=0;html=1;exitX=1;exitY=0.5;exitDx=0;exitDy=0;entryX=0;entryY=0.5;entryDx=0;entryDy=0;" parent="1" source="50" target="57" edge="1">
                    <mxGeometry relative="1" as="geometry"/>
                </mxCell>
                <mxCell id="50" value="pymongo-api&lt;br&gt;&lt;i&gt;python3&lt;/i&gt;" style="rounded=1;whiteSpace=wrap;html=1;" parent="1" vertex="1">
                    <mxGeometry x="40" y="-730" width="120" height="60" as="geometry"/>
                </mxCell>
                <mxCell id="68" style="edgeStyle=orthogonalEdgeStyle;rounded=1;html=1;exitX=0.5;exitY=1;exitDx=0;exitDy=0;entryX=0.5;entryY=1;entryDx=0;entryDy=0;entryPerimeter=0;" parent="1" source="57" target="26" edge="1">
                    <mxGeometry relative="1" as="geometry">
                        <Array as="points">
                            <mxPoint x="280" y="-600"/>
                            <mxPoint x="500" y="-600"/>
                        </Array>
                    </mxGeometry>
                </mxCell>
                <mxCell id="69" style="edgeStyle=orthogonalEdgeStyle;rounded=1;html=1;exitX=0.5;exitY=1;exitDx=0;exitDy=0;entryX=0.5;entryY=1;entryDx=0;entryDy=0;entryPerimeter=0;" parent="1" source="57" target="36" edge="1">
                    <mxGeometry relative="1" as="geometry">
                        <Array as="points">
                            <mxPoint x="280" y="-600"/>
                            <mxPoint x="590" y="-600"/>
                        </Array>
                    </mxGeometry>
                </mxCell>
                <mxCell id="70" style="edgeStyle=orthogonalEdgeStyle;rounded=1;html=1;exitX=0.5;exitY=1;exitDx=0;exitDy=0;entryX=0.5;entryY=1;entryDx=0;entryDy=0;entryPerimeter=0;" parent="1" source="57" target="37" edge="1">
                    <mxGeometry relative="1" as="geometry">
                        <Array as="points">
                            <mxPoint x="280" y="-600"/>
                            <mxPoint x="680" y="-600"/>
                        </Array>
                    </mxGeometry>
                </mxCell>
                <mxCell id="57" value="&lt;span style=&quot;border-color: var(--border-color);&quot;&gt;&lt;span style=&quot;background-color: rgb(255, 255, 255);&quot;&gt;mongos2&lt;br&gt;&lt;/span&gt;&lt;i&gt;mongodb&lt;/i&gt;&lt;/span&gt;" style="rounded=1;whiteSpace=wrap;html=1;" parent="1" vertex="1">
                    <mxGeometry x="220" y="-730" width="120" height="60" as="geometry"/>
                </mxCell>
                <mxCell id="71" style="edgeStyle=orthogonalEdgeStyle;rounded=0;orthogonalLoop=1;jettySize=auto;html=1;exitX=0.5;exitY=0.5;exitDx=0;exitDy=0;exitPerimeter=0;" parent="1" source="72" target="74" edge="1">
                    <mxGeometry relative="1" as="geometry"/>
                </mxCell>
                <mxCell id="72" value="User" style="shape=umlActor;verticalLabelPosition=bottom;verticalAlign=top;html=1;outlineConnect=0;" parent="1" vertex="1">
                    <mxGeometry x="-760" y="-838" width="30" height="60" as="geometry"/>
                </mxCell>
                <mxCell id="73" style="edgeStyle=orthogonalEdgeStyle;rounded=0;orthogonalLoop=1;jettySize=auto;html=1;exitX=1;exitY=0.5;exitDx=0;exitDy=0;" parent="1" source="74" target="79" edge="1">
                    <mxGeometry relative="1" as="geometry"/>
                </mxCell>
                <mxCell id="74" value="Front" style="rounded=1;whiteSpace=wrap;html=1;" parent="1" vertex="1">
                    <mxGeometry x="-680" y="-838" width="120" height="60" as="geometry"/>
                </mxCell>
                <mxCell id="75" value="CDN&lt;div&gt;(region1)&lt;/div&gt;" style="rounded=1;whiteSpace=wrap;html=1;" parent="1" vertex="1">
                    <mxGeometry x="-560" y="-968" width="120" height="60" as="geometry"/>
                </mxCell>
                <mxCell id="76" value="CDN&lt;div&gt;(region2)&lt;/div&gt;" style="rounded=1;whiteSpace=wrap;html=1;" parent="1" vertex="1">
                    <mxGeometry x="-410" y="-968" width="120" height="60" as="geometry"/>
                </mxCell>
                <mxCell id="77" style="edgeStyle=orthogonalEdgeStyle;rounded=0;orthogonalLoop=1;jettySize=auto;html=1;exitX=0.25;exitY=0.25;exitDx=0;exitDy=0;exitPerimeter=0;" parent="1" source="79" target="75" edge="1">
                    <mxGeometry relative="1" as="geometry"/>
                </mxCell>
                <mxCell id="78" style="edgeStyle=orthogonalEdgeStyle;rounded=0;orthogonalLoop=1;jettySize=auto;html=1;exitX=0.625;exitY=0.2;exitDx=0;exitDy=0;exitPerimeter=0;" parent="1" source="79" target="76" edge="1">
                    <mxGeometry relative="1" as="geometry"/>
                </mxCell>
                <mxCell id="82" style="edgeStyle=orthogonalEdgeStyle;html=1;exitX=0.875;exitY=0.5;exitDx=0;exitDy=0;exitPerimeter=0;" parent="1" source="79" target="48" edge="1">
                    <mxGeometry relative="1" as="geometry"/>
                </mxCell>
                <mxCell id="79" value="Internet" style="ellipse;shape=cloud;whiteSpace=wrap;html=1;" parent="1" vertex="1">
                    <mxGeometry x="-490" y="-848" width="120" height="80" as="geometry"/>
                </mxCell>
                <mxCell id="80" value="DNS Server&lt;div&gt;with GeoIP mathing&lt;/div&gt;" style="rounded=1;whiteSpace=wrap;html=1;" parent="1" vertex="1">
                    <mxGeometry x="-484" y="-714" width="120" height="60" as="geometry"/>
                </mxCell>
                <mxCell id="81" style="edgeStyle=orthogonalEdgeStyle;rounded=0;orthogonalLoop=1;jettySize=auto;html=1;exitX=0.5;exitY=0;exitDx=0;exitDy=0;entryX=0.55;entryY=0.95;entryDx=0;entryDy=0;entryPerimeter=0;startArrow=classic;startFill=1;endArrow=none;endFill=0;" parent="1" source="80" target="79" edge="1">
                    <mxGeometry relative="1" as="geometry"/>
                </mxCell>
            </root>
        </mxGraphModel>
    </diagram>
</mxfile>